{
    "asset" : {
        "generator" : "Khronos glTF Blender I/O v1.6.16",
        "version" : "2.0"
    },
    "scene" : 0,
    "scenes" : [
        {
            "name" : "Scene",
            "nodes" : [
                0,
                1,
                2
            ]
        }
    ],
    "nodes" : [
        {
            "mesh" : 0,
            "name" : "Cube.001",
            "translation" : [
                0,
                1.3275669813156128,
                0
            ]
        },
        {
            "mesh" : 1,
            "name" : "Cube.002",
            "translation" : [
                0,
                1.3275669813156128,
                0
            ]
        },
        {
            "mesh" : 2,
            "name" : "Cube.003",
            "translation" : [
                0,
                1.3275669813156128,
                0.03173959627747536
            ]
        }
    ],
    "materials" : [
        {
            "doubleSided" : true,
            "name" : "Mat1",
            "pbrMetallicRoughness" : {
                "baseColorFactor" : [
                    0.800000011920929,
                    0.800000011920929,
                    0.800000011920929,
                    1
                ],
                "metallicFactor" : 0,
                "roughnessFactor" : 0.5
            }
        },
        {
            "doubleSided" : true,
            "name" : "Mat2",
            "pbrMetallicRoughness" : {
                "baseColorFactor" : [
                    0.800000011920929,
                    0.800000011920929,
                    0.800000011920929,
                    1
                ],
                "metallicFactor" : 0,
                "roughnessFactor" : 0.5
            }
        },
        {
            "doubleSided" : true,
            "name" : "Mat3",
            "pbrMetallicRoughness" : {
                "baseColorFactor" : [
                    0.800000011920929,
                    0.800000011920929,
                    0.800000011920929,
                    1
                ],
                "metallicFactor" : 0,
                "roughnessFactor" : 0.5
            }
        },
        {
            "doubleSided" : true,
            "name" : "Mat4",
            "pbrMetallicRoughness" : {
                "baseColorFactor" : [
                    0.800000011920929,
                    0.800000011920929,
                    0.800000011920929,
                    1
                ],
                "metallicFactor" : 0,
                "roughnessFactor" : 0.5
            }
        },
        {
            "doubleSided" : true,
            "name" : "Material.001",
            "pbrMetallicRoughness" : {
                "baseColorFactor" : [
                    0.800000011920929,
                    0.800000011920929,
                    0.800000011920929,
                    1
                ],
                "metallicFactor" : 0,
                "roughnessFactor" : 0.5
            }
        }
    ],
    "meshes" : [
        {
            "name" : "Cube.003",
            "primitives" : [
                {
                    "attributes" : {
                        "POSITION" : 0,
                        "NORMAL" : 1,
                        "TEXCOORD_0" : 2
                    },
                    "indices" : 3,
                    "material" : 0
                },
                {
                    "attributes" : {
                        "POSITION" : 4,
                        "NORMAL" : 5,
                        "TEXCOORD_0" : 6
                    },
                    "indices" : 7,
                    "material" : 1
                },
                {
                    "attributes" : {
                        "POSITION" : 8,
                        "NORMAL" : 9,
                        "TEXCOORD_0" : 10
                    },
                    "indices" : 11,
                    "material" : 2
                },
                {
                    "attributes" : {
                        "POSITION" : 12,
                        "NORMAL" : 13,
                        "TEXCOORD_0" : 14
                    },
                    "indices" : 15,
                    "material" : 3
                }
            ]
        },
        {
            "name" : "Cube.001",
            "primitives" : [
                {
                    "attributes" : {
                        "POSITION" : 16,
                        "NORMAL" : 17,
                        "TEXCOORD_0" : 18
                    },
                    "indices" : 19
                }
            ]
        },
        {
            "name" : "Cube.002",
            "primitives" : [
                {
                    "attributes" : {
                        "POSITION" : 20,
                        "NORMAL" : 21,
                        "TEXCOORD_0" : 22
                    },
                    "indices" : 23,
                    "material" : 4
                }
            ]
        }
    ],
    "accessors" : [
        {
            "bufferView" : 0,
            "componentType" : 5126,
            "count" : 3434,
            "max" : [
                0.8228347301483154,
                0.9636709094047546,
                0.4961808919906616
            ],
            "min" : [
                -0.8228347301483154,
                -0.9511880874633789,
                -0.8228347301483154
            ],
            "type" : "VEC3"
        },
        {
            "bufferView" : 1,
            "componentType" : 5126,
            "count" : 3434,
            "type" : "VEC3"
        },
        {
            "bufferView" : 2,
            "componentType" : 5126,
            "count" : 3434,
            "type" : "VEC2"
        },
        {
            "bufferView" : 3,
            "componentType" : 5123,
            "count" : 3948,
            "type" : "SCALAR"
        },
        {
            "bufferView" : 4,
            "componentType" : 5126,
            "count" : 188,
            "max" : [
                0.6126447916030884,
                -0.7858342528343201,
                0.2976395785808563
            ],
            "min" : [
                -0.6126447916030884,
                -0.9250080585479736,
                -0.4932171404361725
            ],
            "type" : "VEC3"
        },
        {
            "bufferView" : 5,
            "componentType" : 5126,
            "count" : 188,
            "type" : "VEC3"
        },
        {
            "bufferView" : 6,
            "componentType" : 5126,
            "count" : 188,
            "type" : "VEC2"
        },
        {
            "bufferView" : 7,
            "componentType" : 5123,
            "count" : 192,
            "type" : "SCALAR"
        },
        {
            "bufferView" : 8,
            "componentType" : 5126,
            "count" : 766,
            "max" : [
                0.7734503746032715,
                0.9636709094047546,
                0.4891048073768616
            ],
            "min" : [
                -0.7734503746032715,
                -1.3286770582199097,
                -0.7876946926116943
            ],
            "type" : "VEC3"
        },
        {
            "bufferView" : 9,
            "componentType" : 5126,
            "count" : 766,
            "type" : "VEC3"
        },
        {
            "bufferView" : 10,
            "componentType" : 5126,
            "count" : 766,
            "type" : "VEC2"
        },
        {
            "bufferView" : 11,
            "componentType" : 5123,
            "count" : 1098,
            "type" : "SCALAR"
        },
        {
            "bufferView" : 12,
            "componentType" : 5126,
            "count" : 448,
            "max" : [
                0.27521464228630066,
                -0.3043268322944641,
                0.2665210962295532
            ],
            "min" : [
                -0.27521464228630066,
                -0.8386815786361694,
                -0.28860947489738464
            ],
            "type" : "VEC3"
        },
        {
            "bufferView" : 13,
            "componentType" : 5126,
            "count" : 448,
            "type" : "VEC3"
        },
        {
            "bufferView" : 14,
            "componentType" : 5126,
            "count" : 448,
            "type" : "VEC2"
        },
        {
            "bufferView" : 15,
            "componentType" : 5123,
            "count" : 720,
            "type" : "SCALAR"
        },
        {
            "bufferView" : 16,
            "componentType" : 5126,
            "count" : 135,
            "max" : [
                0.6878630518913269,
                0.8286992907524109,
                0.443889856338501
            ],
            "min" : [
                -0.6878631711006165,
                -0.5470268726348877,
                0.443889856338501
            ],
            "type" : "VEC3"
        },
        {
            "bufferView" : 17,
            "componentType" : 5126,
            "count" : 135,
            "type" : "VEC3"
        },
        {
            "bufferView" : 18,
            "componentType" : 5126,
            "count" : 135,
            "type" : "VEC2"
        },
        {
            "bufferView" : 19,
            "componentType" : 5123,
            "count" : 150,
            "type" : "SCALAR"
        },
        {
            "bufferView" : 20,
            "componentType" : 5126,
            "count" : 1108,
            "max" : [
                0.6878630518913269,
                0.8286992907524109,
                0.443889856338501
            ],
            "min" : [
                -0.6878631711006165,
                -0.5470268726348877,
                0.4177645444869995
            ],
            "type" : "VEC3"
        },
        {
            "bufferView" : 21,
            "componentType" : 5126,
            "count" : 1108,
            "type" : "VEC3"
        },
        {
            "bufferView" : 22,
            "componentType" : 5126,
            "count" : 1108,
            "type" : "VEC2"
        },
        {
            "bufferView" : 23,
            "componentType" : 5123,
            "count" : 1224,
            "type" : "SCALAR"
        }
    ],
    "bufferViews" : [
        {
            "buffer" : 0,
            "byteLength" : 41208,
            "byteOffset" : 0
        },
        {
            "buffer" : 0,
            "byteLength" : 41208,
            "byteOffset" : 41208
        },
        {
            "buffer" : 0,
            "byteLength" : 27472,
            "byteOffset" : 82416
        },
        {
            "buffer" : 0,
            "byteLength" : 7896,
            "byteOffset" : 109888
        },
        {
            "buffer" : 0,
            "byteLength" : 2256,
            "byteOffset" : 117784
        },
        {
            "buffer" : 0,
            "byteLength" : 2256,
            "byteOffset" : 120040
        },
        {
            "buffer" : 0,
            "byteLength" : 1504,
            "byteOffset" : 122296
        },
        {
            "buffer" : 0,
            "byteLength" : 384,
            "byteOffset" : 123800
        },
        {
            "buffer" : 0,
            "byteLength" : 9192,
            "byteOffset" : 124184
        },
        {
            "buffer" : 0,
            "byteLength" : 9192,
            "byteOffset" : 133376
        },
        {
            "buffer" : 0,
            "byteLength" : 6128,
            "byteOffset" : 142568
        },
        {
            "buffer" : 0,
            "byteLength" : 2196,
            "byteOffset" : 148696
        },
        {
            "buffer" : 0,
            "byteLength" : 5376,
            "byteOffset" : 150892
        },
        {
            "buffer" : 0,
            "byteLength" : 5376,
            "byteOffset" : 156268
        },
        {
            "buffer" : 0,
            "byteLength" : 3584,
            "byteOffset" : 161644
        },
        {
            "buffer" : 0,
            "byteLength" : 1440,
            "byteOffset" : 165228
        },
        {
            "buffer" : 0,
            "byteLength" : 1620,
            "byteOffset" : 166668
        },
        {
            "buffer" : 0,
            "byteLength" : 1620,
            "byteOffset" : 168288
        },
        {
            "buffer" : 0,
            "byteLength" : 1080,
            "byteOffset" : 169908
        },
        {
            "buffer" : 0,
            "byteLength" : 300,
            "byteOffset" : 170988
        },
        {
            "buffer" : 0,
            "byteLength" : 13296,
            "byteOffset" : 171288
        },
        {
            "buffer" : 0,
            "byteLength" : 13296,
            "byteOffset" : 184584
        },
        {
            "buffer" : 0,
            "byteLength" : 8864,
            "byteOffset" : 197880
        },
        {
            "buffer" : 0,
            "byteLength" : 2448,
            "byteOffset" : 206744
        }
    ],
    "buffers" : [
        {
            "byteLength" : 209192,
            "uri" : "data:application/octet-stream;base64,"
        }
    ]
}
